<mxfile host="app.diagrams.net" modified="2021-07-16T06:32:12.896Z" agent="5.0 (Windows NT 10.0; Win64; x64) AppleWebKit/537.36 (KHTML, like Gecko) Chrome/91.0.4472.124 Safari/537.36" etag="RFDuRq7PwSdJD0K_sn88" version="14.8.6" type="github">
  <diagram id="V4AZoDEf44NErV2NpP-w" name="Page-1">
    <mxGraphModel dx="1185" dy="635" grid="1" gridSize="10" guides="1" tooltips="1" connect="1" arrows="1" fold="1" page="1" pageScale="1" pageWidth="827" pageHeight="1169" math="0" shadow="0">
      <root>
        <mxCell id="0" />
        <mxCell id="1" parent="0" />
        <mxCell id="l_wjwqc4Vr7Gb7yi7xOm-1" value="" style="endArrow=classic;html=1;" parent="1" edge="1">
          <mxGeometry width="50" height="50" relative="1" as="geometry">
            <mxPoint x="60" y="120" as="sourcePoint" />
            <mxPoint x="480" y="120" as="targetPoint" />
          </mxGeometry>
        </mxCell>
        <mxCell id="l_wjwqc4Vr7Gb7yi7xOm-2" value="master" style="text;html=1;strokeColor=none;fillColor=none;align=center;verticalAlign=middle;whiteSpace=wrap;rounded=0;" parent="1" vertex="1">
          <mxGeometry y="110" width="60" height="20" as="geometry" />
        </mxCell>
        <mxCell id="l_wjwqc4Vr7Gb7yi7xOm-3" value="" style="endArrow=classic;html=1;" parent="1" edge="1">
          <mxGeometry width="50" height="50" relative="1" as="geometry">
            <mxPoint x="60" y="160" as="sourcePoint" />
            <mxPoint x="480" y="160" as="targetPoint" />
          </mxGeometry>
        </mxCell>
        <mxCell id="l_wjwqc4Vr7Gb7yi7xOm-4" value="release" style="text;html=1;strokeColor=none;fillColor=none;align=center;verticalAlign=middle;whiteSpace=wrap;rounded=0;" parent="1" vertex="1">
          <mxGeometry y="150" width="60" height="20" as="geometry" />
        </mxCell>
        <mxCell id="l_wjwqc4Vr7Gb7yi7xOm-5" value="2106_1" style="text;html=1;strokeColor=none;fillColor=none;align=center;verticalAlign=middle;whiteSpace=wrap;rounded=0;" parent="1" vertex="1">
          <mxGeometry y="190" width="60" height="20" as="geometry" />
        </mxCell>
        <mxCell id="l_wjwqc4Vr7Gb7yi7xOm-6" value="" style="endArrow=none;html=1;exitX=1;exitY=0.5;exitDx=0;exitDy=0;entryX=1;entryY=0.5;entryDx=0;entryDy=0;endFill=0;" parent="1" source="l_wjwqc4Vr7Gb7yi7xOm-24" target="l_wjwqc4Vr7Gb7yi7xOm-50" edge="1">
          <mxGeometry width="50" height="50" relative="1" as="geometry">
            <mxPoint x="60" y="200" as="sourcePoint" />
            <mxPoint x="810" y="200" as="targetPoint" />
          </mxGeometry>
        </mxCell>
        <mxCell id="l_wjwqc4Vr7Gb7yi7xOm-7" value="" style="endArrow=none;html=1;exitX=1;exitY=0.5;exitDx=0;exitDy=0;entryX=1;entryY=0.5;entryDx=0;entryDy=0;endFill=0;" parent="1" source="l_wjwqc4Vr7Gb7yi7xOm-25" target="l_wjwqc4Vr7Gb7yi7xOm-68" edge="1">
          <mxGeometry width="50" height="50" relative="1" as="geometry">
            <mxPoint x="60" y="240" as="sourcePoint" />
            <mxPoint x="810" y="240" as="targetPoint" />
          </mxGeometry>
        </mxCell>
        <mxCell id="l_wjwqc4Vr7Gb7yi7xOm-8" value="2106_2" style="text;html=1;strokeColor=none;fillColor=none;align=center;verticalAlign=middle;whiteSpace=wrap;rounded=0;" parent="1" vertex="1">
          <mxGeometry y="230" width="60" height="20" as="geometry" />
        </mxCell>
        <mxCell id="l_wjwqc4Vr7Gb7yi7xOm-16" value="feature 1" style="text;html=1;strokeColor=none;fillColor=none;align=center;verticalAlign=middle;whiteSpace=wrap;rounded=0;" parent="1" vertex="1">
          <mxGeometry y="350" width="60" height="20" as="geometry" />
        </mxCell>
        <mxCell id="l_wjwqc4Vr7Gb7yi7xOm-17" value="" style="endArrow=none;html=1;exitX=1;exitY=0.5;exitDx=0;exitDy=0;entryX=1;entryY=0.5;entryDx=0;entryDy=0;endFill=0;" parent="1" source="l_wjwqc4Vr7Gb7yi7xOm-184" target="l_wjwqc4Vr7Gb7yi7xOm-179" edge="1">
          <mxGeometry width="50" height="50" relative="1" as="geometry">
            <mxPoint x="60" y="360" as="sourcePoint" />
            <mxPoint x="810" y="360" as="targetPoint" />
          </mxGeometry>
        </mxCell>
        <mxCell id="l_wjwqc4Vr7Gb7yi7xOm-34" style="edgeStyle=none;rounded=0;orthogonalLoop=1;jettySize=auto;html=1;exitX=0.5;exitY=1;exitDx=0;exitDy=0;entryX=0.5;entryY=0;entryDx=0;entryDy=0;endArrow=openThin;endFill=0;strokeColor=#999999;" parent="1" source="l_wjwqc4Vr7Gb7yi7xOm-23" target="l_wjwqc4Vr7Gb7yi7xOm-24" edge="1">
          <mxGeometry relative="1" as="geometry" />
        </mxCell>
        <mxCell id="l_wjwqc4Vr7Gb7yi7xOm-23" value="" style="ellipse;whiteSpace=wrap;html=1;aspect=fixed;" parent="1" vertex="1">
          <mxGeometry x="70" y="155" width="10" height="10" as="geometry" />
        </mxCell>
        <mxCell id="l_wjwqc4Vr7Gb7yi7xOm-29" style="edgeStyle=none;rounded=0;orthogonalLoop=1;jettySize=auto;html=1;exitX=0;exitY=0.5;exitDx=0;exitDy=0;entryX=1;entryY=0.5;entryDx=0;entryDy=0;endArrow=none;endFill=0;dashed=1;" parent="1" source="l_wjwqc4Vr7Gb7yi7xOm-24" target="l_wjwqc4Vr7Gb7yi7xOm-5" edge="1">
          <mxGeometry relative="1" as="geometry" />
        </mxCell>
        <mxCell id="l_wjwqc4Vr7Gb7yi7xOm-35" style="edgeStyle=none;rounded=0;orthogonalLoop=1;jettySize=auto;html=1;entryX=0.5;entryY=0;entryDx=0;entryDy=0;endArrow=openThin;endFill=0;strokeColor=#999999;" parent="1" source="l_wjwqc4Vr7Gb7yi7xOm-24" target="l_wjwqc4Vr7Gb7yi7xOm-25" edge="1">
          <mxGeometry relative="1" as="geometry" />
        </mxCell>
        <mxCell id="l_wjwqc4Vr7Gb7yi7xOm-24" value="" style="ellipse;whiteSpace=wrap;html=1;aspect=fixed;" parent="1" vertex="1">
          <mxGeometry x="70" y="195" width="10" height="10" as="geometry" />
        </mxCell>
        <mxCell id="l_wjwqc4Vr7Gb7yi7xOm-30" style="edgeStyle=none;rounded=0;orthogonalLoop=1;jettySize=auto;html=1;exitX=0;exitY=0.5;exitDx=0;exitDy=0;dashed=1;endArrow=none;endFill=0;" parent="1" source="l_wjwqc4Vr7Gb7yi7xOm-25" target="l_wjwqc4Vr7Gb7yi7xOm-8" edge="1">
          <mxGeometry relative="1" as="geometry" />
        </mxCell>
        <mxCell id="l_wjwqc4Vr7Gb7yi7xOm-36" style="edgeStyle=none;rounded=0;orthogonalLoop=1;jettySize=auto;html=1;endArrow=openThin;endFill=0;strokeColor=#999999;" parent="1" source="l_wjwqc4Vr7Gb7yi7xOm-25" target="l_wjwqc4Vr7Gb7yi7xOm-184" edge="1">
          <mxGeometry relative="1" as="geometry" />
        </mxCell>
        <mxCell id="l_wjwqc4Vr7Gb7yi7xOm-25" value="" style="ellipse;whiteSpace=wrap;html=1;aspect=fixed;" parent="1" vertex="1">
          <mxGeometry x="70" y="235" width="10" height="10" as="geometry" />
        </mxCell>
        <mxCell id="l_wjwqc4Vr7Gb7yi7xOm-33" style="edgeStyle=none;rounded=0;orthogonalLoop=1;jettySize=auto;html=1;exitX=0.156;exitY=0.498;exitDx=0;exitDy=0;dashed=1;endArrow=none;endFill=0;exitPerimeter=0;" parent="1" source="l_wjwqc4Vr7Gb7yi7xOm-184" target="l_wjwqc4Vr7Gb7yi7xOm-16" edge="1">
          <mxGeometry relative="1" as="geometry" />
        </mxCell>
        <mxCell id="l_wjwqc4Vr7Gb7yi7xOm-32" value="" style="ellipse;whiteSpace=wrap;html=1;aspect=fixed;" parent="1" vertex="1">
          <mxGeometry x="110" y="355" width="10" height="10" as="geometry" />
        </mxCell>
        <mxCell id="l_wjwqc4Vr7Gb7yi7xOm-45" style="edgeStyle=none;rounded=0;orthogonalLoop=1;jettySize=auto;html=1;fontColor=#007FFF;endArrow=openThin;endFill=0;strokeColor=#FF0000;" parent="1" source="l_wjwqc4Vr7Gb7yi7xOm-37" target="l_wjwqc4Vr7Gb7yi7xOm-43" edge="1">
          <mxGeometry relative="1" as="geometry">
            <mxPoint x="155" y="160" as="targetPoint" />
          </mxGeometry>
        </mxCell>
        <mxCell id="l_wjwqc4Vr7Gb7yi7xOm-47" value="" style="edgeStyle=none;rounded=0;orthogonalLoop=1;jettySize=auto;html=1;fontColor=#007FFF;endArrow=openThin;endFill=0;strokeColor=#FF0000;" parent="1" source="l_wjwqc4Vr7Gb7yi7xOm-37" target="l_wjwqc4Vr7Gb7yi7xOm-46" edge="1">
          <mxGeometry x="-0.103" y="-4" relative="1" as="geometry">
            <mxPoint x="136.23606797749585" y="204.4721359549917" as="sourcePoint" />
            <mxPoint x="151.7639320225041" y="235.5278640450082" as="targetPoint" />
            <mxPoint as="offset" />
          </mxGeometry>
        </mxCell>
        <mxCell id="l_wjwqc4Vr7Gb7yi7xOm-37" value="" style="ellipse;whiteSpace=wrap;html=1;aspect=fixed;" parent="1" vertex="1">
          <mxGeometry x="150" y="195" width="10" height="10" as="geometry" />
        </mxCell>
        <mxCell id="l_wjwqc4Vr7Gb7yi7xOm-195" style="edgeStyle=none;rounded=0;orthogonalLoop=1;jettySize=auto;html=1;exitX=0.5;exitY=1;exitDx=0;exitDy=0;entryX=0.5;entryY=0;entryDx=0;entryDy=0;fontColor=#007FFF;endArrow=openThin;endFill=0;strokeColor=#FF0000;" parent="1" source="l_wjwqc4Vr7Gb7yi7xOm-38" target="l_wjwqc4Vr7Gb7yi7xOm-32" edge="1">
          <mxGeometry relative="1" as="geometry" />
        </mxCell>
        <mxCell id="l_wjwqc4Vr7Gb7yi7xOm-38" value="" style="ellipse;whiteSpace=wrap;html=1;aspect=fixed;" parent="1" vertex="1">
          <mxGeometry x="110" y="235" width="10" height="10" as="geometry" />
        </mxCell>
        <mxCell id="l_wjwqc4Vr7Gb7yi7xOm-49" style="edgeStyle=none;rounded=0;orthogonalLoop=1;jettySize=auto;html=1;fontColor=#007FFF;endArrow=openThin;endFill=0;strokeColor=#FF0000;" parent="1" source="l_wjwqc4Vr7Gb7yi7xOm-43" target="l_wjwqc4Vr7Gb7yi7xOm-48" edge="1">
          <mxGeometry relative="1" as="geometry" />
        </mxCell>
        <mxCell id="l_wjwqc4Vr7Gb7yi7xOm-43" value="" style="ellipse;whiteSpace=wrap;html=1;aspect=fixed;" parent="1" vertex="1">
          <mxGeometry x="150" y="155" width="10" height="10" as="geometry" />
        </mxCell>
        <mxCell id="l_wjwqc4Vr7Gb7yi7xOm-44" value="&lt;span style=&quot;font-size: 8px&quot;&gt;-1灰度&lt;/span&gt;" style="text;html=1;strokeColor=none;fillColor=none;align=center;verticalAlign=middle;whiteSpace=wrap;rounded=0;fontColor=#007FFF;" parent="1" vertex="1">
          <mxGeometry x="150" y="100" width="50" height="15" as="geometry" />
        </mxCell>
        <mxCell id="l_wjwqc4Vr7Gb7yi7xOm-46" value="" style="ellipse;whiteSpace=wrap;html=1;aspect=fixed;" parent="1" vertex="1">
          <mxGeometry x="150" y="235" width="10" height="10" as="geometry" />
        </mxCell>
        <mxCell id="l_wjwqc4Vr7Gb7yi7xOm-48" value="" style="ellipse;whiteSpace=wrap;html=1;aspect=fixed;" parent="1" vertex="1">
          <mxGeometry x="170" y="115" width="10" height="10" as="geometry" />
        </mxCell>
        <mxCell id="l_wjwqc4Vr7Gb7yi7xOm-60" style="edgeStyle=none;rounded=0;orthogonalLoop=1;jettySize=auto;html=1;fontColor=#007FFF;endArrow=openThin;endFill=0;strokeColor=#FF0000;" parent="1" source="l_wjwqc4Vr7Gb7yi7xOm-50" target="l_wjwqc4Vr7Gb7yi7xOm-59" edge="1">
          <mxGeometry relative="1" as="geometry" />
        </mxCell>
        <mxCell id="l_wjwqc4Vr7Gb7yi7xOm-50" value="" style="ellipse;whiteSpace=wrap;html=1;aspect=fixed;" parent="1" vertex="1">
          <mxGeometry x="190" y="195" width="10" height="10" as="geometry" />
        </mxCell>
        <mxCell id="l_wjwqc4Vr7Gb7yi7xOm-52" style="edgeStyle=none;rounded=0;orthogonalLoop=1;jettySize=auto;html=1;fontColor=#007FFF;endArrow=openThin;endFill=0;strokeColor=#FF0000;" parent="1" source="l_wjwqc4Vr7Gb7yi7xOm-50" target="l_wjwqc4Vr7Gb7yi7xOm-54" edge="1">
          <mxGeometry relative="1" as="geometry">
            <mxPoint x="172.78480521388752" y="164.4825118024865" as="targetPoint" />
          </mxGeometry>
        </mxCell>
        <mxCell id="l_wjwqc4Vr7Gb7yi7xOm-53" value="" style="ellipse;whiteSpace=wrap;html=1;aspect=fixed;" parent="1" vertex="1">
          <mxGeometry x="210" y="115" width="10" height="10" as="geometry" />
        </mxCell>
        <mxCell id="l_wjwqc4Vr7Gb7yi7xOm-56" style="edgeStyle=none;rounded=0;orthogonalLoop=1;jettySize=auto;html=1;fontColor=#007FFF;endArrow=openThin;endFill=0;strokeColor=#FF0000;" parent="1" source="l_wjwqc4Vr7Gb7yi7xOm-54" target="l_wjwqc4Vr7Gb7yi7xOm-53" edge="1">
          <mxGeometry relative="1" as="geometry" />
        </mxCell>
        <mxCell id="l_wjwqc4Vr7Gb7yi7xOm-99" style="edgeStyle=none;rounded=0;orthogonalLoop=1;jettySize=auto;html=1;fontColor=#007FFF;endArrow=openThin;endFill=0;strokeColor=#999999;" parent="1" source="l_wjwqc4Vr7Gb7yi7xOm-54" target="l_wjwqc4Vr7Gb7yi7xOm-95" edge="1">
          <mxGeometry relative="1" as="geometry" />
        </mxCell>
        <mxCell id="l_wjwqc4Vr7Gb7yi7xOm-54" value="" style="ellipse;whiteSpace=wrap;html=1;aspect=fixed;" parent="1" vertex="1">
          <mxGeometry x="190" y="155" width="10" height="10" as="geometry" />
        </mxCell>
        <mxCell id="l_wjwqc4Vr7Gb7yi7xOm-55" value="" style="ellipse;whiteSpace=wrap;html=1;aspect=fixed;" parent="1" vertex="1">
          <mxGeometry x="170" y="195" width="10" height="10" as="geometry" />
        </mxCell>
        <mxCell id="l_wjwqc4Vr7Gb7yi7xOm-57" value="&lt;span style=&quot;font-size: 8px&quot;&gt;-1全量&lt;/span&gt;" style="text;html=1;strokeColor=none;fillColor=none;align=center;verticalAlign=middle;whiteSpace=wrap;rounded=0;fontColor=#007FFF;" parent="1" vertex="1">
          <mxGeometry x="190" y="100" width="50" height="15" as="geometry" />
        </mxCell>
        <mxCell id="l_wjwqc4Vr7Gb7yi7xOm-196" style="edgeStyle=none;rounded=0;orthogonalLoop=1;jettySize=auto;html=1;exitX=0.5;exitY=1;exitDx=0;exitDy=0;entryX=0.5;entryY=0;entryDx=0;entryDy=0;fontColor=#007FFF;endArrow=openThin;endFill=0;strokeColor=#FF0000;" parent="1" source="l_wjwqc4Vr7Gb7yi7xOm-58" target="l_wjwqc4Vr7Gb7yi7xOm-191" edge="1">
          <mxGeometry relative="1" as="geometry" />
        </mxCell>
        <mxCell id="l_wjwqc4Vr7Gb7yi7xOm-58" value="" style="ellipse;whiteSpace=wrap;html=1;aspect=fixed;" parent="1" vertex="1">
          <mxGeometry x="170" y="235" width="10" height="10" as="geometry" />
        </mxCell>
        <mxCell id="l_wjwqc4Vr7Gb7yi7xOm-59" value="" style="ellipse;whiteSpace=wrap;html=1;aspect=fixed;" parent="1" vertex="1">
          <mxGeometry x="190" y="235" width="10" height="10" as="geometry" />
        </mxCell>
        <mxCell id="l_wjwqc4Vr7Gb7yi7xOm-63" style="edgeStyle=none;rounded=0;orthogonalLoop=1;jettySize=auto;html=1;fontColor=#007FFF;endArrow=openThin;endFill=0;strokeColor=#FF0000;" parent="1" source="l_wjwqc4Vr7Gb7yi7xOm-61" target="l_wjwqc4Vr7Gb7yi7xOm-62" edge="1">
          <mxGeometry relative="1" as="geometry" />
        </mxCell>
        <mxCell id="l_wjwqc4Vr7Gb7yi7xOm-61" value="" style="ellipse;whiteSpace=wrap;html=1;aspect=fixed;" parent="1" vertex="1">
          <mxGeometry x="230" y="235" width="10" height="10" as="geometry" />
        </mxCell>
        <mxCell id="l_wjwqc4Vr7Gb7yi7xOm-65" style="edgeStyle=none;rounded=0;orthogonalLoop=1;jettySize=auto;html=1;fontColor=#007FFF;endArrow=openThin;endFill=0;strokeColor=#FF0000;" parent="1" source="l_wjwqc4Vr7Gb7yi7xOm-62" target="l_wjwqc4Vr7Gb7yi7xOm-64" edge="1">
          <mxGeometry relative="1" as="geometry">
            <mxPoint x="235" y="160" as="sourcePoint" />
          </mxGeometry>
        </mxCell>
        <mxCell id="l_wjwqc4Vr7Gb7yi7xOm-136" style="edgeStyle=none;rounded=0;orthogonalLoop=1;jettySize=auto;html=1;fontColor=#007FFF;endArrow=openThin;endFill=0;strokeColor=#FF0000;" parent="1" source="l_wjwqc4Vr7Gb7yi7xOm-62" target="l_wjwqc4Vr7Gb7yi7xOm-124" edge="1">
          <mxGeometry relative="1" as="geometry" />
        </mxCell>
        <mxCell id="l_wjwqc4Vr7Gb7yi7xOm-62" value="" style="ellipse;whiteSpace=wrap;html=1;aspect=fixed;" parent="1" vertex="1">
          <mxGeometry x="230" y="155" width="10" height="10" as="geometry" />
        </mxCell>
        <mxCell id="l_wjwqc4Vr7Gb7yi7xOm-64" value="" style="ellipse;whiteSpace=wrap;html=1;aspect=fixed;" parent="1" vertex="1">
          <mxGeometry x="250" y="115" width="10" height="10" as="geometry" />
        </mxCell>
        <mxCell id="l_wjwqc4Vr7Gb7yi7xOm-66" value="&lt;span style=&quot;font-size: 8px&quot;&gt;-2灰度&lt;/span&gt;" style="text;html=1;strokeColor=none;fillColor=none;align=center;verticalAlign=middle;whiteSpace=wrap;rounded=0;fontColor=#007FFF;" parent="1" vertex="1">
          <mxGeometry x="230" y="100" width="50" height="15" as="geometry" />
        </mxCell>
        <mxCell id="l_wjwqc4Vr7Gb7yi7xOm-68" value="" style="ellipse;whiteSpace=wrap;html=1;aspect=fixed;" parent="1" vertex="1">
          <mxGeometry x="270" y="235" width="10" height="10" as="geometry" />
        </mxCell>
        <mxCell id="l_wjwqc4Vr7Gb7yi7xOm-72" style="edgeStyle=none;rounded=0;orthogonalLoop=1;jettySize=auto;html=1;fontColor=#007FFF;endArrow=openThin;endFill=0;strokeColor=#FF0000;" parent="1" source="l_wjwqc4Vr7Gb7yi7xOm-69" target="l_wjwqc4Vr7Gb7yi7xOm-71" edge="1">
          <mxGeometry relative="1" as="geometry" />
        </mxCell>
        <mxCell id="l_wjwqc4Vr7Gb7yi7xOm-138" style="edgeStyle=none;rounded=0;orthogonalLoop=1;jettySize=auto;html=1;fontColor=#007FFF;endArrow=openThin;endFill=0;strokeColor=#FF0000;" parent="1" source="l_wjwqc4Vr7Gb7yi7xOm-69" target="l_wjwqc4Vr7Gb7yi7xOm-130" edge="1">
          <mxGeometry relative="1" as="geometry" />
        </mxCell>
        <mxCell id="l_wjwqc4Vr7Gb7yi7xOm-69" value="" style="ellipse;whiteSpace=wrap;html=1;aspect=fixed;" parent="1" vertex="1">
          <mxGeometry x="270" y="155" width="10" height="10" as="geometry" />
        </mxCell>
        <mxCell id="l_wjwqc4Vr7Gb7yi7xOm-70" style="edgeStyle=none;rounded=0;orthogonalLoop=1;jettySize=auto;html=1;fontColor=#007FFF;endArrow=openThin;endFill=0;strokeColor=#FF0000;" parent="1" source="l_wjwqc4Vr7Gb7yi7xOm-68" target="l_wjwqc4Vr7Gb7yi7xOm-69" edge="1">
          <mxGeometry relative="1" as="geometry" />
        </mxCell>
        <mxCell id="l_wjwqc4Vr7Gb7yi7xOm-71" value="" style="ellipse;whiteSpace=wrap;html=1;aspect=fixed;" parent="1" vertex="1">
          <mxGeometry x="290" y="115" width="10" height="10" as="geometry" />
        </mxCell>
        <mxCell id="l_wjwqc4Vr7Gb7yi7xOm-73" value="&lt;span style=&quot;font-size: 8px&quot;&gt;-2全量&lt;/span&gt;" style="text;html=1;strokeColor=none;fillColor=none;align=center;verticalAlign=middle;whiteSpace=wrap;rounded=0;fontColor=#007FFF;" parent="1" vertex="1">
          <mxGeometry x="270" y="100" width="50" height="15" as="geometry" />
        </mxCell>
        <mxCell id="l_wjwqc4Vr7Gb7yi7xOm-92" value="2107_1" style="text;html=1;strokeColor=none;fillColor=none;align=center;verticalAlign=middle;whiteSpace=wrap;rounded=0;" parent="1" vertex="1">
          <mxGeometry y="270" width="60" height="20" as="geometry" />
        </mxCell>
        <mxCell id="l_wjwqc4Vr7Gb7yi7xOm-93" value="" style="endArrow=none;html=1;exitX=1;exitY=0.5;exitDx=0;exitDy=0;entryX=0;entryY=0.5;entryDx=0;entryDy=0;endFill=0;" parent="1" source="l_wjwqc4Vr7Gb7yi7xOm-95" target="l_wjwqc4Vr7Gb7yi7xOm-141" edge="1">
          <mxGeometry width="50" height="50" relative="1" as="geometry">
            <mxPoint x="210" y="280" as="sourcePoint" />
            <mxPoint x="330" y="280" as="targetPoint" />
          </mxGeometry>
        </mxCell>
        <mxCell id="l_wjwqc4Vr7Gb7yi7xOm-94" style="edgeStyle=none;rounded=0;orthogonalLoop=1;jettySize=auto;html=1;exitX=0;exitY=0.5;exitDx=0;exitDy=0;entryX=1;entryY=0.5;entryDx=0;entryDy=0;endArrow=none;endFill=0;dashed=1;" parent="1" source="l_wjwqc4Vr7Gb7yi7xOm-95" target="l_wjwqc4Vr7Gb7yi7xOm-92" edge="1">
          <mxGeometry relative="1" as="geometry" />
        </mxCell>
        <mxCell id="l_wjwqc4Vr7Gb7yi7xOm-111" style="edgeStyle=none;rounded=0;orthogonalLoop=1;jettySize=auto;html=1;fontColor=#007FFF;endArrow=openThin;endFill=0;strokeColor=#999999;" parent="1" source="l_wjwqc4Vr7Gb7yi7xOm-95" target="l_wjwqc4Vr7Gb7yi7xOm-103" edge="1">
          <mxGeometry relative="1" as="geometry" />
        </mxCell>
        <mxCell id="l_wjwqc4Vr7Gb7yi7xOm-95" value="" style="ellipse;whiteSpace=wrap;html=1;aspect=fixed;" parent="1" vertex="1">
          <mxGeometry x="230" y="275" width="10" height="10" as="geometry" />
        </mxCell>
        <mxCell id="l_wjwqc4Vr7Gb7yi7xOm-100" value="" style="endArrow=none;html=1;exitX=1;exitY=0.5;exitDx=0;exitDy=0;entryX=0;entryY=0.5;entryDx=0;entryDy=0;endFill=0;" parent="1" source="l_wjwqc4Vr7Gb7yi7xOm-103" target="l_wjwqc4Vr7Gb7yi7xOm-166" edge="1">
          <mxGeometry width="50" height="50" relative="1" as="geometry">
            <mxPoint x="210" y="320" as="sourcePoint" />
            <mxPoint x="390" y="320" as="targetPoint" />
          </mxGeometry>
        </mxCell>
        <mxCell id="l_wjwqc4Vr7Gb7yi7xOm-101" value="2107_2" style="text;html=1;strokeColor=none;fillColor=none;align=center;verticalAlign=middle;whiteSpace=wrap;rounded=0;" parent="1" vertex="1">
          <mxGeometry y="310" width="60" height="20" as="geometry" />
        </mxCell>
        <mxCell id="l_wjwqc4Vr7Gb7yi7xOm-102" style="edgeStyle=none;rounded=0;orthogonalLoop=1;jettySize=auto;html=1;exitX=0;exitY=0.5;exitDx=0;exitDy=0;dashed=1;endArrow=none;endFill=0;" parent="1" source="l_wjwqc4Vr7Gb7yi7xOm-103" target="l_wjwqc4Vr7Gb7yi7xOm-101" edge="1">
          <mxGeometry relative="1" as="geometry" />
        </mxCell>
        <mxCell id="l_wjwqc4Vr7Gb7yi7xOm-197" style="edgeStyle=none;rounded=0;orthogonalLoop=1;jettySize=auto;html=1;exitX=0.5;exitY=1;exitDx=0;exitDy=0;entryX=0.5;entryY=0;entryDx=0;entryDy=0;fontColor=#007FFF;endArrow=openThin;endFill=0;strokeColor=#FF0000;" parent="1" source="l_wjwqc4Vr7Gb7yi7xOm-103" target="l_wjwqc4Vr7Gb7yi7xOm-177" edge="1">
          <mxGeometry relative="1" as="geometry" />
        </mxCell>
        <mxCell id="l_wjwqc4Vr7Gb7yi7xOm-103" value="" style="ellipse;whiteSpace=wrap;html=1;aspect=fixed;" parent="1" vertex="1">
          <mxGeometry x="230" y="315" width="10" height="10" as="geometry" />
        </mxCell>
        <mxCell id="l_wjwqc4Vr7Gb7yi7xOm-115" value="" style="ellipse;whiteSpace=wrap;html=1;aspect=fixed;" parent="1" vertex="1">
          <mxGeometry x="110" y="195" width="10" height="10" as="geometry" />
        </mxCell>
        <mxCell id="l_wjwqc4Vr7Gb7yi7xOm-122" value="" style="ellipse;whiteSpace=wrap;html=1;aspect=fixed;" parent="1" vertex="1">
          <mxGeometry x="90" y="195" width="10" height="10" as="geometry" />
        </mxCell>
        <mxCell id="l_wjwqc4Vr7Gb7yi7xOm-123" value="" style="ellipse;whiteSpace=wrap;html=1;aspect=fixed;" parent="1" vertex="1">
          <mxGeometry x="90" y="235" width="10" height="10" as="geometry" />
        </mxCell>
        <mxCell id="l_wjwqc4Vr7Gb7yi7xOm-124" value="" style="ellipse;whiteSpace=wrap;html=1;aspect=fixed;" parent="1" vertex="1">
          <mxGeometry x="250" y="275" width="10" height="10" as="geometry" />
        </mxCell>
        <mxCell id="l_wjwqc4Vr7Gb7yi7xOm-125" value="" style="ellipse;whiteSpace=wrap;html=1;aspect=fixed;" parent="1" vertex="1">
          <mxGeometry x="270" y="275" width="10" height="10" as="geometry" />
        </mxCell>
        <mxCell id="l_wjwqc4Vr7Gb7yi7xOm-198" style="edgeStyle=none;rounded=0;orthogonalLoop=1;jettySize=auto;html=1;exitX=0.5;exitY=1;exitDx=0;exitDy=0;fontColor=#007FFF;endArrow=openThin;endFill=0;strokeColor=#FF0000;" parent="1" source="l_wjwqc4Vr7Gb7yi7xOm-126" target="l_wjwqc4Vr7Gb7yi7xOm-178" edge="1">
          <mxGeometry relative="1" as="geometry" />
        </mxCell>
        <mxCell id="l_wjwqc4Vr7Gb7yi7xOm-126" value="" style="ellipse;whiteSpace=wrap;html=1;aspect=fixed;" parent="1" vertex="1">
          <mxGeometry x="270" y="315" width="10" height="10" as="geometry" />
        </mxCell>
        <mxCell id="l_wjwqc4Vr7Gb7yi7xOm-127" value="" style="ellipse;whiteSpace=wrap;html=1;aspect=fixed;" parent="1" vertex="1">
          <mxGeometry x="250" y="315" width="10" height="10" as="geometry" />
        </mxCell>
        <mxCell id="l_wjwqc4Vr7Gb7yi7xOm-130" value="" style="ellipse;whiteSpace=wrap;html=1;aspect=fixed;" parent="1" vertex="1">
          <mxGeometry x="290" y="275" width="10" height="10" as="geometry" />
        </mxCell>
        <mxCell id="l_wjwqc4Vr7Gb7yi7xOm-131" value="" style="ellipse;whiteSpace=wrap;html=1;aspect=fixed;" parent="1" vertex="1">
          <mxGeometry x="330" y="275" width="10" height="10" as="geometry" />
        </mxCell>
        <mxCell id="l_wjwqc4Vr7Gb7yi7xOm-146" style="edgeStyle=none;rounded=0;orthogonalLoop=1;jettySize=auto;html=1;exitX=0.5;exitY=0;exitDx=0;exitDy=0;entryX=0.5;entryY=1;entryDx=0;entryDy=0;fontColor=#007FFF;endArrow=openThin;endFill=0;strokeColor=#FF0000;" parent="1" source="l_wjwqc4Vr7Gb7yi7xOm-132" target="l_wjwqc4Vr7Gb7yi7xOm-142" edge="1">
          <mxGeometry relative="1" as="geometry" />
        </mxCell>
        <mxCell id="l_wjwqc4Vr7Gb7yi7xOm-163" style="edgeStyle=none;rounded=0;orthogonalLoop=1;jettySize=auto;html=1;exitX=0.5;exitY=1;exitDx=0;exitDy=0;entryX=0.5;entryY=0;entryDx=0;entryDy=0;fontColor=#007FFF;endArrow=openThin;endFill=0;strokeColor=#FF0000;" parent="1" source="l_wjwqc4Vr7Gb7yi7xOm-132" target="l_wjwqc4Vr7Gb7yi7xOm-160" edge="1">
          <mxGeometry relative="1" as="geometry" />
        </mxCell>
        <mxCell id="l_wjwqc4Vr7Gb7yi7xOm-132" value="" style="ellipse;whiteSpace=wrap;html=1;aspect=fixed;" parent="1" vertex="1">
          <mxGeometry x="310" y="275" width="10" height="10" as="geometry" />
        </mxCell>
        <mxCell id="l_wjwqc4Vr7Gb7yi7xOm-134" value="" style="ellipse;whiteSpace=wrap;html=1;aspect=fixed;" parent="1" vertex="1">
          <mxGeometry x="130" y="195" width="10" height="10" as="geometry" />
        </mxCell>
        <mxCell id="l_wjwqc4Vr7Gb7yi7xOm-135" value="" style="ellipse;whiteSpace=wrap;html=1;aspect=fixed;" parent="1" vertex="1">
          <mxGeometry x="130" y="235" width="10" height="10" as="geometry" />
        </mxCell>
        <mxCell id="l_wjwqc4Vr7Gb7yi7xOm-137" style="edgeStyle=none;rounded=0;orthogonalLoop=1;jettySize=auto;html=1;fontColor=#007FFF;endArrow=openThin;endFill=0;strokeColor=#FF0000;" parent="1" source="l_wjwqc4Vr7Gb7yi7xOm-62" target="l_wjwqc4Vr7Gb7yi7xOm-127" edge="1">
          <mxGeometry relative="1" as="geometry" />
        </mxCell>
        <mxCell id="l_wjwqc4Vr7Gb7yi7xOm-139" value="" style="ellipse;whiteSpace=wrap;html=1;aspect=fixed;" parent="1" vertex="1">
          <mxGeometry x="290" y="315" width="10" height="10" as="geometry" />
        </mxCell>
        <mxCell id="l_wjwqc4Vr7Gb7yi7xOm-140" style="edgeStyle=none;rounded=0;orthogonalLoop=1;jettySize=auto;html=1;fontColor=#007FFF;endArrow=openThin;endFill=0;strokeColor=#FF0000;" parent="1" source="l_wjwqc4Vr7Gb7yi7xOm-69" target="l_wjwqc4Vr7Gb7yi7xOm-139" edge="1">
          <mxGeometry relative="1" as="geometry" />
        </mxCell>
        <mxCell id="l_wjwqc4Vr7Gb7yi7xOm-147" style="edgeStyle=none;rounded=0;orthogonalLoop=1;jettySize=auto;html=1;exitX=0.5;exitY=0;exitDx=0;exitDy=0;entryX=0.5;entryY=1;entryDx=0;entryDy=0;fontColor=#007FFF;endArrow=openThin;endFill=0;strokeColor=#FF0000;" parent="1" source="l_wjwqc4Vr7Gb7yi7xOm-141" target="l_wjwqc4Vr7Gb7yi7xOm-143" edge="1">
          <mxGeometry relative="1" as="geometry" />
        </mxCell>
        <mxCell id="l_wjwqc4Vr7Gb7yi7xOm-164" style="edgeStyle=none;rounded=0;orthogonalLoop=1;jettySize=auto;html=1;exitX=0.5;exitY=1;exitDx=0;exitDy=0;entryX=0.5;entryY=0;entryDx=0;entryDy=0;fontColor=#007FFF;endArrow=openThin;endFill=0;strokeColor=#FF0000;" parent="1" source="l_wjwqc4Vr7Gb7yi7xOm-141" target="l_wjwqc4Vr7Gb7yi7xOm-162" edge="1">
          <mxGeometry relative="1" as="geometry" />
        </mxCell>
        <mxCell id="l_wjwqc4Vr7Gb7yi7xOm-141" value="" style="ellipse;whiteSpace=wrap;html=1;aspect=fixed;" parent="1" vertex="1">
          <mxGeometry x="350" y="275" width="10" height="10" as="geometry" />
        </mxCell>
        <mxCell id="l_wjwqc4Vr7Gb7yi7xOm-142" value="" style="ellipse;whiteSpace=wrap;html=1;aspect=fixed;" parent="1" vertex="1">
          <mxGeometry x="310" y="155" width="10" height="10" as="geometry" />
        </mxCell>
        <mxCell id="l_wjwqc4Vr7Gb7yi7xOm-143" value="" style="ellipse;whiteSpace=wrap;html=1;aspect=fixed;" parent="1" vertex="1">
          <mxGeometry x="350" y="155" width="10" height="10" as="geometry" />
        </mxCell>
        <mxCell id="l_wjwqc4Vr7Gb7yi7xOm-144" value="" style="ellipse;whiteSpace=wrap;html=1;aspect=fixed;" parent="1" vertex="1">
          <mxGeometry x="390" y="155" width="10" height="10" as="geometry" />
        </mxCell>
        <mxCell id="l_wjwqc4Vr7Gb7yi7xOm-145" value="" style="ellipse;whiteSpace=wrap;html=1;aspect=fixed;" parent="1" vertex="1">
          <mxGeometry x="430" y="155" width="10" height="10" as="geometry" />
        </mxCell>
        <mxCell id="l_wjwqc4Vr7Gb7yi7xOm-148" value="&lt;span style=&quot;font-size: 8px&quot;&gt;-1灰度&lt;/span&gt;" style="text;html=1;strokeColor=none;fillColor=none;align=center;verticalAlign=middle;whiteSpace=wrap;rounded=0;fontColor=#007FFF;" parent="1" vertex="1">
          <mxGeometry x="310" y="100" width="50" height="15" as="geometry" />
        </mxCell>
        <mxCell id="l_wjwqc4Vr7Gb7yi7xOm-149" value="" style="ellipse;whiteSpace=wrap;html=1;aspect=fixed;" parent="1" vertex="1">
          <mxGeometry x="330" y="115" width="10" height="10" as="geometry" />
        </mxCell>
        <mxCell id="l_wjwqc4Vr7Gb7yi7xOm-150" value="" style="ellipse;whiteSpace=wrap;html=1;aspect=fixed;" parent="1" vertex="1">
          <mxGeometry x="370" y="115" width="10" height="10" as="geometry" />
        </mxCell>
        <mxCell id="l_wjwqc4Vr7Gb7yi7xOm-151" value="&lt;span style=&quot;font-size: 8px&quot;&gt;-1全量&lt;/span&gt;" style="text;html=1;strokeColor=none;fillColor=none;align=center;verticalAlign=middle;whiteSpace=wrap;rounded=0;fontColor=#007FFF;" parent="1" vertex="1">
          <mxGeometry x="350" y="100" width="50" height="15" as="geometry" />
        </mxCell>
        <mxCell id="l_wjwqc4Vr7Gb7yi7xOm-152" value="" style="ellipse;whiteSpace=wrap;html=1;aspect=fixed;" parent="1" vertex="1">
          <mxGeometry x="410" y="115" width="10" height="10" as="geometry" />
        </mxCell>
        <mxCell id="l_wjwqc4Vr7Gb7yi7xOm-153" value="&lt;span style=&quot;font-size: 8px&quot;&gt;-2灰度&lt;/span&gt;" style="text;html=1;strokeColor=none;fillColor=none;align=center;verticalAlign=middle;whiteSpace=wrap;rounded=0;fontColor=#007FFF;" parent="1" vertex="1">
          <mxGeometry x="390" y="100" width="50" height="15" as="geometry" />
        </mxCell>
        <mxCell id="l_wjwqc4Vr7Gb7yi7xOm-154" value="" style="ellipse;whiteSpace=wrap;html=1;aspect=fixed;" parent="1" vertex="1">
          <mxGeometry x="450" y="115" width="10" height="10" as="geometry" />
        </mxCell>
        <mxCell id="l_wjwqc4Vr7Gb7yi7xOm-155" value="&lt;span style=&quot;font-size: 8px&quot;&gt;-2全量&lt;/span&gt;" style="text;html=1;strokeColor=none;fillColor=none;align=center;verticalAlign=middle;whiteSpace=wrap;rounded=0;fontColor=#007FFF;" parent="1" vertex="1">
          <mxGeometry x="430" y="100" width="50" height="15" as="geometry" />
        </mxCell>
        <mxCell id="l_wjwqc4Vr7Gb7yi7xOm-156" style="edgeStyle=none;rounded=0;orthogonalLoop=1;jettySize=auto;html=1;fontColor=#007FFF;endArrow=openThin;endFill=0;strokeColor=#FF0000;exitX=0;exitY=0;exitDx=0;exitDy=0;" parent="1" source="l_wjwqc4Vr7Gb7yi7xOm-142" target="l_wjwqc4Vr7Gb7yi7xOm-149" edge="1">
          <mxGeometry relative="1" as="geometry" />
        </mxCell>
        <mxCell id="l_wjwqc4Vr7Gb7yi7xOm-157" style="edgeStyle=none;rounded=0;orthogonalLoop=1;jettySize=auto;html=1;fontColor=#007FFF;endArrow=openThin;endFill=0;strokeColor=#FF0000;" parent="1" source="l_wjwqc4Vr7Gb7yi7xOm-143" target="l_wjwqc4Vr7Gb7yi7xOm-150" edge="1">
          <mxGeometry relative="1" as="geometry" />
        </mxCell>
        <mxCell id="l_wjwqc4Vr7Gb7yi7xOm-158" style="edgeStyle=none;rounded=0;orthogonalLoop=1;jettySize=auto;html=1;fontColor=#007FFF;endArrow=openThin;endFill=0;strokeColor=#FF0000;" parent="1" source="l_wjwqc4Vr7Gb7yi7xOm-144" target="l_wjwqc4Vr7Gb7yi7xOm-152" edge="1">
          <mxGeometry relative="1" as="geometry" />
        </mxCell>
        <mxCell id="l_wjwqc4Vr7Gb7yi7xOm-159" style="edgeStyle=none;rounded=0;orthogonalLoop=1;jettySize=auto;html=1;fontColor=#007FFF;endArrow=openThin;endFill=0;strokeColor=#FF0000;" parent="1" source="l_wjwqc4Vr7Gb7yi7xOm-145" target="l_wjwqc4Vr7Gb7yi7xOm-154" edge="1">
          <mxGeometry relative="1" as="geometry" />
        </mxCell>
        <mxCell id="l_wjwqc4Vr7Gb7yi7xOm-160" value="" style="ellipse;whiteSpace=wrap;html=1;aspect=fixed;" parent="1" vertex="1">
          <mxGeometry x="310" y="315" width="10" height="10" as="geometry" />
        </mxCell>
        <mxCell id="l_wjwqc4Vr7Gb7yi7xOm-161" value="" style="ellipse;whiteSpace=wrap;html=1;aspect=fixed;" parent="1" vertex="1">
          <mxGeometry x="330" y="315" width="10" height="10" as="geometry" />
        </mxCell>
        <mxCell id="l_wjwqc4Vr7Gb7yi7xOm-162" value="" style="ellipse;whiteSpace=wrap;html=1;aspect=fixed;" parent="1" vertex="1">
          <mxGeometry x="350" y="315" width="10" height="10" as="geometry" />
        </mxCell>
        <mxCell id="l_wjwqc4Vr7Gb7yi7xOm-167" style="edgeStyle=none;rounded=0;orthogonalLoop=1;jettySize=auto;html=1;exitX=0.5;exitY=0;exitDx=0;exitDy=0;entryX=0.5;entryY=1;entryDx=0;entryDy=0;fontColor=#007FFF;endArrow=openThin;endFill=0;strokeColor=#FF0000;" parent="1" source="l_wjwqc4Vr7Gb7yi7xOm-165" target="l_wjwqc4Vr7Gb7yi7xOm-144" edge="1">
          <mxGeometry relative="1" as="geometry" />
        </mxCell>
        <mxCell id="l_wjwqc4Vr7Gb7yi7xOm-165" value="" style="ellipse;whiteSpace=wrap;html=1;aspect=fixed;" parent="1" vertex="1">
          <mxGeometry x="389" y="315" width="10" height="10" as="geometry" />
        </mxCell>
        <mxCell id="l_wjwqc4Vr7Gb7yi7xOm-168" style="edgeStyle=none;rounded=0;orthogonalLoop=1;jettySize=auto;html=1;exitX=0.5;exitY=0;exitDx=0;exitDy=0;entryX=0.5;entryY=1;entryDx=0;entryDy=0;fontColor=#007FFF;endArrow=openThin;endFill=0;strokeColor=#FF0000;" parent="1" source="l_wjwqc4Vr7Gb7yi7xOm-166" target="l_wjwqc4Vr7Gb7yi7xOm-145" edge="1">
          <mxGeometry relative="1" as="geometry" />
        </mxCell>
        <mxCell id="l_wjwqc4Vr7Gb7yi7xOm-166" value="" style="ellipse;whiteSpace=wrap;html=1;aspect=fixed;" parent="1" vertex="1">
          <mxGeometry x="429" y="315" width="10" height="10" as="geometry" />
        </mxCell>
        <mxCell id="l_wjwqc4Vr7Gb7yi7xOm-169" value="" style="ellipse;whiteSpace=wrap;html=1;aspect=fixed;" parent="1" vertex="1">
          <mxGeometry x="150" y="355" width="10" height="10" as="geometry" />
        </mxCell>
        <mxCell id="l_wjwqc4Vr7Gb7yi7xOm-176" value="" style="ellipse;whiteSpace=wrap;html=1;aspect=fixed;" parent="1" vertex="1">
          <mxGeometry x="190" y="355" width="10" height="10" as="geometry" />
        </mxCell>
        <mxCell id="l_wjwqc4Vr7Gb7yi7xOm-177" value="" style="ellipse;whiteSpace=wrap;html=1;aspect=fixed;" parent="1" vertex="1">
          <mxGeometry x="230" y="355" width="10" height="10" as="geometry" />
        </mxCell>
        <mxCell id="l_wjwqc4Vr7Gb7yi7xOm-178" value="" style="ellipse;whiteSpace=wrap;html=1;aspect=fixed;" parent="1" vertex="1">
          <mxGeometry x="270" y="355" width="10" height="10" as="geometry" />
        </mxCell>
        <mxCell id="l_wjwqc4Vr7Gb7yi7xOm-183" style="edgeStyle=none;rounded=0;orthogonalLoop=1;jettySize=auto;html=1;fontColor=#007FFF;endArrow=openThin;endFill=0;strokeColor=#FF0000;" parent="1" source="l_wjwqc4Vr7Gb7yi7xOm-179" target="l_wjwqc4Vr7Gb7yi7xOm-161" edge="1">
          <mxGeometry relative="1" as="geometry" />
        </mxCell>
        <mxCell id="l_wjwqc4Vr7Gb7yi7xOm-179" value="" style="ellipse;whiteSpace=wrap;html=1;aspect=fixed;" parent="1" vertex="1">
          <mxGeometry x="310" y="355" width="10" height="10" as="geometry" />
        </mxCell>
        <mxCell id="l_wjwqc4Vr7Gb7yi7xOm-184" value="" style="ellipse;whiteSpace=wrap;html=1;aspect=fixed;" parent="1" vertex="1">
          <mxGeometry x="70" y="355" width="10" height="10" as="geometry" />
        </mxCell>
        <mxCell id="l_wjwqc4Vr7Gb7yi7xOm-189" value="" style="ellipse;whiteSpace=wrap;html=1;aspect=fixed;" parent="1" vertex="1">
          <mxGeometry x="90" y="355" width="10" height="10" as="geometry" />
        </mxCell>
        <mxCell id="l_wjwqc4Vr7Gb7yi7xOm-190" value="" style="ellipse;whiteSpace=wrap;html=1;aspect=fixed;" parent="1" vertex="1">
          <mxGeometry x="130" y="355" width="10" height="10" as="geometry" />
        </mxCell>
        <mxCell id="l_wjwqc4Vr7Gb7yi7xOm-191" value="" style="ellipse;whiteSpace=wrap;html=1;aspect=fixed;" parent="1" vertex="1">
          <mxGeometry x="170" y="355" width="10" height="10" as="geometry" />
        </mxCell>
        <mxCell id="l_wjwqc4Vr7Gb7yi7xOm-192" value="" style="ellipse;whiteSpace=wrap;html=1;aspect=fixed;" parent="1" vertex="1">
          <mxGeometry x="210" y="355" width="10" height="10" as="geometry" />
        </mxCell>
        <mxCell id="l_wjwqc4Vr7Gb7yi7xOm-193" value="" style="ellipse;whiteSpace=wrap;html=1;aspect=fixed;" parent="1" vertex="1">
          <mxGeometry x="250" y="355" width="10" height="10" as="geometry" />
        </mxCell>
        <mxCell id="l_wjwqc4Vr7Gb7yi7xOm-194" value="" style="ellipse;whiteSpace=wrap;html=1;aspect=fixed;" parent="1" vertex="1">
          <mxGeometry x="290" y="355" width="10" height="10" as="geometry" />
        </mxCell>
        <mxCell id="QlwQ_NP9zq1OJtwYSMPy-1" value="" style="rounded=0;whiteSpace=wrap;html=1;strokeColor=none;shadow=1;" vertex="1" parent="1">
          <mxGeometry x="360" y="340" width="120" height="60" as="geometry" />
        </mxCell>
        <mxCell id="QlwQ_NP9zq1OJtwYSMPy-2" value="Create Branch" style="edgeStyle=none;rounded=0;orthogonalLoop=1;jettySize=auto;html=1;entryX=1;entryY=0.25;entryDx=0;entryDy=0;endArrow=openThin;endFill=0;strokeColor=#999999;exitX=0;exitY=0.25;exitDx=0;exitDy=0;" edge="1" parent="1" source="QlwQ_NP9zq1OJtwYSMPy-1" target="QlwQ_NP9zq1OJtwYSMPy-1">
          <mxGeometry relative="1" as="geometry" />
        </mxCell>
        <mxCell id="QlwQ_NP9zq1OJtwYSMPy-3" value="Merge" style="edgeStyle=none;rounded=0;orthogonalLoop=1;jettySize=auto;html=1;endArrow=openThin;endFill=0;strokeColor=#FF0000;entryX=1;entryY=0.75;entryDx=0;entryDy=0;exitX=0;exitY=0.75;exitDx=0;exitDy=0;" edge="1" parent="1" source="QlwQ_NP9zq1OJtwYSMPy-1" target="QlwQ_NP9zq1OJtwYSMPy-1">
          <mxGeometry relative="1" as="geometry" />
        </mxCell>
      </root>
    </mxGraphModel>
  </diagram>
</mxfile>
